HIERARCHY
ROOT joint_0
{
	OFFSET 0.000000 0.000000 0.000000
	CHANNELS 6 Xposition Yposition Zposition Zrotation Yrotation Xrotation 
	JOINT joint_1
	{
		OFFSET 7.566162 2.250183 114.799927
		CHANNELS 3 Zrotation Yrotation Xrotation
		JOINT joint_2
		{
			OFFSET -5.201660 -0.414001 104.936035
			CHANNELS 3 Zrotation Yrotation Xrotation
			JOINT joint_3
			{
				OFFSET -6.923584 -0.419739 104.718018
				CHANNELS 3 Zrotation Yrotation Xrotation
				JOINT joint_4
				{
					OFFSET 3.108887 2.881104 149.449951
					CHANNELS 3 Zrotation Yrotation Xrotation
					JOINT joint_5
					{
						OFFSET 19.988770 5.920349 90.786987
						CHANNELS 3 Zrotation Yrotation Xrotation
						End Site
						{
							OFFSET 0.000000 0.000000 0.000000
						}
					}
				}
				JOINT joint_6
				{
					OFFSET 9.283936 -30.015930 84.410034
					CHANNELS 3 Zrotation Yrotation Xrotation
					JOINT joint_7
					{
						OFFSET 47.243164 -155.716736 -23.241089
						CHANNELS 3 Zrotation Yrotation Xrotation
						JOINT joint_8
						{
							OFFSET 31.323730 -15.356873 -268.798950
							CHANNELS 3 Zrotation Yrotation Xrotation
							JOINT joint_9
							{
								OFFSET 28.122314 -2.114624 -262.450012
								CHANNELS 3 Zrotation Yrotation Xrotation
								End Site
								{
									OFFSET 0.000000 0.000000 0.000000
								}
							}
						}
					}
				}
				JOINT joint_10
				{
					OFFSET -5.580566 33.311218 83.498047
					CHANNELS 3 Zrotation Yrotation Xrotation
					JOINT joint_11
					{
						OFFSET -22.773438 160.515381 -27.138062
						CHANNELS 3 Zrotation Yrotation Xrotation
						JOINT joint_12
						{
							OFFSET 27.004395 30.848877 -267.937988
							CHANNELS 3 Zrotation Yrotation Xrotation
							JOINT joint_13
							{
								OFFSET 32.625000 14.824585 -261.518005
								CHANNELS 3 Zrotation Yrotation Xrotation
								End Site
								{
									OFFSET 0.000000 0.000000 0.000000
								}
							}
						}
					}
				}
			}
		}
	}
	JOINT joint_14
	{
		OFFSET 20.623535 -83.447632 -106.174011
		CHANNELS 3 Zrotation Yrotation Xrotation
		JOINT joint_15
		{
			OFFSET 0.661865 -23.563843 -459.915039
			CHANNELS 3 Zrotation Yrotation Xrotation
			JOINT joint_16
			{
				OFFSET -23.461670 -28.727966 -444.760971
				CHANNELS 3 Zrotation Yrotation Xrotation
				JOINT joint_17
				{
					OFFSET 178.992920 54.047363 -80.113001
					CHANNELS 3 Zrotation Yrotation Xrotation
					End Site
					{
						OFFSET 0.000000 0.000000 0.000000
					}
				}
			}
		}
	}
	JOINT joint_18
	{
		OFFSET -19.571533 84.686279 -105.380005
		CHANNELS 3 Zrotation Yrotation Xrotation
		JOINT joint_19
		{
			OFFSET -22.949951 3.639404 -459.933044
			CHANNELS 3 Zrotation Yrotation Xrotation
			JOINT joint_20
			{
				OFFSET -33.690674 4.092651 -445.010971
				CHANNELS 3 Zrotation Yrotation Xrotation
				JOINT joint_21
				{
					OFFSET 187.419678 18.953857 -76.759001
					CHANNELS 3 Zrotation Yrotation Xrotation
					End Site
					{
						OFFSET 0.000000 0.000000 0.000000
					}
				}
			}
		}
	}
}
MOTION
Frames: 12
Frame Time: 0.016667
-3337.707764 936.675293 1110.427002 -15.113675 1.019176 -0.498893 -0.160612 1.658790 1.345862 -0.281759 -0.305453 -0.333237 -0.245574 0.371708 0.210380 0.055105 -0.939697 -0.002942 0.000000 0.000000 0.000000 0.326916 2.532393 -0.447696 0.029868 2.343670 -1.237401 0.720483 -0.827132 5.020887 0.000000 0.000000 0.000000 3.080008 2.535915 -1.171115 0.028701 1.850694 -2.366107 -0.165552 -1.243820 -0.635969 0.000000 0.000000 0.000000 0.320056 1.992353 -0.076994 0.473639 -1.878889 -0.032456 0.371194 -1.266518 0.547990 0.000000 0.000000 0.000000 0.412042 -1.713400 0.533277 0.472117 3.375705 -0.202734 0.313885 -2.153886 0.346504 0.000000 0.000000 0.000000 
-3335.042969 936.356873 1110.142944 -15.032363 1.857352 -0.655727 -0.190023 1.310797 1.282655 -0.303685 -0.284620 -0.325332 -0.268610 0.352481 0.206007 0.043390 -1.952477 0.349944 0.000000 0.000000 0.000000 0.673174 2.818717 -0.654309 0.077024 2.745781 -1.217152 0.802314 -1.122528 5.489939 0.000000 0.000000 0.000000 3.029084 2.867956 -0.955413 0.051041 2.118058 -2.697176 -0.193733 -1.610697 -0.671868 0.000000 0.000000 0.000000 0.275583 1.344070 0.019469 0.422475 -2.106720 0.035714 0.302023 -1.232422 0.506739 0.000000 0.000000 0.000000 0.441849 -2.400868 0.722314 0.510137 3.203080 -0.230704 0.357516 -2.178214 0.366836 0.000000 0.000000 0.000000 
-3332.080322 936.109253 1109.862061 -14.952922 2.611768 -0.795259 -0.213276 0.993574 1.231620 -0.318287 -0.253119 -0.311658 -0.284703 0.316469 0.200075 0.041950 -2.655741 0.585822 0.000000 0.000000 0.000000 0.930776 3.069107 -0.795869 0.120122 3.042593 -1.317447 0.887946 -1.227533 6.023282 0.000000 0.000000 0.000000 3.007072 3.103812 -0.844916 0.081078 2.335100 -2.785950 -0.223517 -1.828936 -0.811914 0.000000 0.000000 0.000000 0.184643 0.791194 0.090208 0.326955 -2.325545 0.157437 0.191220 -1.173063 0.439369 0.000000 0.000000 0.000000 0.503574 -2.966412 0.903357 0.581300 3.021848 -0.268931 0.431038 -2.279395 0.407162 0.000000 0.000000 0.000000 
-3328.891113 936.029114 1109.619019 -14.880716 3.168491 -0.895266 -0.226973 0.737859 1.211606 -0.323959 -0.208459 -0.288302 -0.292661 0.260127 0.189498 0.048385 -2.785016 0.594240 0.000000 0.000000 0.000000 1.075627 3.203998 -0.753119 0.132740 3.080272 -1.662028 0.935082 -0.716606 6.455030 0.000000 0.000000 0.000000 3.026782 3.119759 -0.944242 0.100146 2.411224 -2.462910 -0.230582 -1.488974 -1.064979 0.000000 0.000000 0.000000 0.009938 0.443135 0.104995 0.153245 -2.535574 0.385678 0.006953 -1.059242 0.322905 0.000000 0.000000 0.000000 0.627910 -3.282268 1.063954 0.717445 2.833561 -0.326757 0.563305 -2.524779 0.486075 0.000000 0.000000 0.000000 
-3325.403809 936.019775 1109.378052 -14.809275 3.643754 -0.980375 -0.233940 0.509848 1.207261 -0.323040 -0.161488 -0.260704 -0.294428 0.199404 0.175527 0.057281 -2.604916 0.482861 0.000000 0.000000 0.000000 1.144573 3.301112 -0.650966 0.141097 3.013231 -2.130090 0.992965 -0.014135 6.962658 0.000000 0.000000 0.000000 3.069583 3.038959 -1.135869 0.127064 2.434044 -1.908714 -0.238257 -1.002311 -1.423001 0.000000 0.000000 0.000000 -0.211896 0.187645 0.097626 -0.065142 -2.734020 0.670092 -0.219112 -0.924743 0.181618 0.000000 0.000000 0.000000 0.783690 -3.479592 1.219485 0.886959 2.637050 -0.397329 0.725284 -2.849885 0.585146 0.000000 0.000000 0.000000 
-3321.750977 935.950073 1109.141968 -14.731375 4.093247 -1.072666 -0.217224 0.427248 1.193909 -0.303054 -0.140185 -0.242681 -0.276374 0.174744 0.164187 0.065404 -2.459497 0.382784 0.000000 0.000000 0.000000 1.023351 3.509523 -0.745970 0.193207 3.107926 -2.510761 1.190119 -0.292077 8.069309 0.000000 0.000000 0.000000 3.098258 3.051479 -1.252385 0.220226 2.558938 -1.318267 -0.328238 -1.476724 -1.966002 0.000000 0.000000 0.000000 -0.406424 -0.051474 0.118931 -0.259589 -2.850815 0.888799 -0.414217 -0.863993 0.076423 0.000000 0.000000 0.000000 0.894102 -3.659399 1.362742 1.010257 2.468438 -0.456049 0.842393 -3.132727 0.661537 0.000000 0.000000 0.000000 
-3318.094971 935.747131 1108.935059 -14.647630 4.491562 -1.174042 -0.157032 0.599125 1.151470 -0.249005 -0.159042 -0.235051 -0.223742 0.202099 0.154725 0.071099 -2.460305 0.333744 0.000000 0.000000 0.000000 0.634566 3.888381 -0.997066 0.322851 3.382908 -2.848182 1.583462 -1.789372 9.946342 0.000000 0.000000 0.000000 3.049071 3.142321 -1.339527 0.417343 2.806992 -0.609917 -0.492672 -3.070433 -2.678470 0.000000 0.000000 0.000000 -0.543873 -0.256976 0.187170 -0.401791 -2.853814 0.983031 -0.547885 -0.906871 0.029941 0.000000 0.000000 0.000000 0.921985 -3.806950 1.482892 1.048240 2.327918 -0.486777 0.879033 -3.313816 0.694706 0.000000 0.000000 0.000000 
-3314.272217 935.481812 1108.734009 -14.557340 4.861108 -1.281440 -0.070673 0.921191 1.098389 -0.177029 -0.197513 -0.232392 -0.153015 0.254267 0.146999 0.075813 -2.495988 0.293100 0.000000 0.000000 0.000000 0.040991 4.406478 -1.368895 0.560106 3.791674 -3.179604 2.159485 -4.335543 12.334429 0.000000 0.000000 0.000000 2.990988 3.305582 -1.395186 0.740949 3.161196 0.186701 -0.688828 -5.600427 -3.609205 0.000000 0.000000 0.000000 -0.652888 -0.441839 0.281638 -0.519064 -2.778904 1.008587 -0.649063 -1.020312 0.019292 0.000000 0.000000 0.000000 0.905259 -3.932029 1.591060 1.040238 2.214879 -0.503689 0.871635 -3.454175 0.705733 0.000000 0.000000 0.000000 
-3309.921387 935.236511 1108.473022 -14.452718 5.327524 -1.408691 0.001375 1.196712 1.063937 -0.121262 -0.235073 -0.230583 -0.098595 0.304380 0.139456 0.077850 -2.572150 0.269964 0.000000 0.000000 0.000000 -0.650540 5.118276 -2.066123 0.971584 4.497691 -3.371679 2.955033 -8.617720 15.087188 0.000000 0.000000 0.000000 3.085530 3.740647 -1.240565 1.285250 3.745468 0.794708 -0.908278 -9.701677 -5.006175 0.000000 0.000000 0.000000 -0.746413 -0.725327 0.393394 -0.625790 -2.659314 1.016576 -0.733144 -1.199608 0.036224 0.000000 0.000000 0.000000 0.879295 -4.168774 1.711924 1.024346 2.162786 -0.527292 0.854143 -3.610775 0.714262 0.000000 0.000000 0.000000 
-3305.008789 935.029907 1108.120972 -14.329039 5.960428 -1.564003 0.047247 1.345637 1.059315 -0.089709 -0.265253 -0.234234 -0.067781 0.345283 0.136675 0.074651 -2.708442 0.275577 0.000000 0.000000 0.000000 -1.492742 6.205162 -2.979764 1.623876 5.589418 -3.569340 3.999820 -15.479989 18.059703 0.000000 0.000000 0.000000 3.413434 4.537881 -1.078504 2.236682 4.732875 1.483312 -1.122788 -15.966906 -7.392886 0.000000 0.000000 0.000000 -0.822816 -1.200957 0.528798 -0.724399 -2.470662 1.014490 -0.799153 -1.460172 0.085817 0.000000 0.000000 0.000000 0.854952 -4.604837 1.862067 1.012971 2.197164 -0.570866 0.836747 -3.806294 0.726754 0.000000 0.000000 0.000000 
-3299.566895 934.842163 1107.708984 -14.192807 6.689378 -1.737734 0.079717 1.450585 1.073231 -0.072335 -0.292247 -0.243180 -0.050567 0.380668 0.137111 0.066384 -2.894736 0.305295 0.000000 0.000000 0.000000 -2.483741 7.576306 -3.838444 2.417188 6.835822 -3.992447 5.091051 -24.253293 20.838846 0.000000 0.000000 0.000000 3.892141 5.497053 -1.094702 3.489261 5.961988 2.486303 -1.296000 -23.631992 -10.562773 0.000000 0.000000 0.000000 -0.883418 -1.773658 0.680872 -0.812864 -2.238457 0.994740 -0.849224 -1.780598 0.160654 0.000000 0.000000 0.000000 0.820753 -5.150792 2.024069 0.993130 2.291214 -0.620712 0.809079 -4.011750 0.736039 0.000000 0.000000 0.000000 
-3293.338135 934.693665 1107.265991 -14.052448 7.428997 -1.918756 0.095030 1.562293 1.103142 -0.075043 -0.315964 -0.252365 -0.053173 0.405107 0.140281 0.058339 -3.092507 0.334784 0.000000 0.000000 0.000000 -3.392970 8.914945 -4.719508 3.120841 8.006278 -4.568585 5.950776 -33.587691 23.199607 0.000000 0.000000 0.000000 4.402099 6.481043 -1.028373 4.690897 7.133255 3.388840 -1.446863 -31.708392 -13.590485 0.000000 0.000000 0.000000 -0.945995 -2.278089 0.825595 -0.897876 -2.072158 0.983036 -0.902335 -2.097120 0.233115 0.000000 0.000000 0.000000 0.778224 -5.675613 2.174619 0.965433 2.401424 -0.658197 0.774667 -4.205954 0.741401 0.000000 0.000000 0.000000 
